<svg width="80" height="80" viewBox="0 0 80 80" fill="none" xmlns="http://www.w3.org/2000/svg">
<path d="M68.4751 34.55H40.5251V46.125H56.6251C55.1251 53.5 48.8501 57.725 40.5251 57.725C35.8241 57.725 31.3157 55.8576 27.9916 52.5335C24.6675 49.2094 22.8001 44.701 22.8001 40C22.8001 35.2991 24.6675 30.7906 27.9916 27.4665C31.3157 24.1425 35.8241 22.275 40.5251 22.275C44.5532 22.2807 48.4561 23.6758 51.5751 26.225L60.3001 17.5C56.6574 14.2875 52.2892 12.0074 47.5708 10.8557C42.8524 9.70403 37.925 9.71514 33.2119 10.8881C28.4987 12.0611 24.1409 14.3608 20.5127 17.5898C16.8845 20.8187 14.0946 24.8802 12.3826 29.4254C10.6706 33.9705 10.0877 38.8634 10.684 43.6836C11.2804 48.5037 13.0381 53.107 15.8062 57.0979C18.5743 61.0888 22.2699 64.3479 26.5756 66.5953C30.8813 68.8427 35.6682 70.011 40.5251 70C55.5251 70 69.1501 59.1 69.1501 40C69.1352 38.1634 68.9087 36.3347 68.4751 34.55V34.55Z" fill="#A8AFB5"/>
</svg>
